<?xml version="1.0" encoding="UTF-8" standalone="no"?><!-- Generator: Gravit.io --><svg xmlns="http://www.w3.org/2000/svg" xmlns:xlink="http://www.w3.org/1999/xlink" style="isolation:isolate" viewBox="0 0 100 100" width="100pt" height="100pt"><defs><clipPath id="_clipPath_DYp9pknGJjjB0ICAueioJ8S3Yk6VvZpf"><rect width="100" height="100"/></clipPath></defs><g clip-path="url(#_clipPath_DYp9pknGJjjB0ICAueioJ8S3Yk6VvZpf)"><circle vector-effect="non-scaling-stroke" cx="49.99999999999999" cy="50.00000000000001" r="42.49999999999999" fill="rgb(67,114,244)" fill-opacity="0.19"/><path d=" M 60.3 26 C 59.936 26.012 59.575 26.061 59.221 26.144 L 59.191 26.144 L 31.846 34.083 C 29.489 34.746 27.906 36.959 27.906 39.422 L 27.906 68.259 C 27.906 71.338 30.336 74 33.429 74 L 66.571 74 C 69.649 74 72.094 71.352 72.094 68.259 L 72.094 42.913 C 72.094 39.809 69.664 37.161 66.571 37.161 L 34.464 37.161 L 60.112 29.708 L 60.127 29.708 C 60.502 29.609 60.602 29.682 60.745 29.811 C 60.956 30.053 61.064 30.367 61.047 30.688 L 61.047 33.45 L 64.73 33.45 L 64.73 30.688 C 64.73 29.307 64.214 27.985 63.19 27.079 C 62.391 26.378 61.363 25.994 60.3 26 Z  M 33.429 40.84 L 40.761 40.84 L 66.571 40.84 C 67.55 40.84 68.412 41.691 68.412 42.913 L 68.412 68.259 C 68.412 69.467 67.55 70.318 66.571 70.318 L 33.429 70.318 C 32.45 70.318 31.588 69.471 31.588 68.259 L 31.588 42.913 C 31.588 41.691 32.45 40.844 33.429 40.844 L 33.429 40.84 Z  M 61.047 51.861 C 59.022 51.861 57.365 53.519 57.365 55.544 C 57.365 57.569 59.022 59.226 61.047 59.226 C 63.072 59.226 64.73 57.569 64.73 55.544 C 64.73 53.519 63.072 51.861 61.047 51.861 Z " fill="rgb(67,114,244)"/></g></svg>