<?xml version="1.0" encoding="UTF-8" standalone="no"?><!-- Generator: Gravit.io --><svg xmlns="http://www.w3.org/2000/svg" xmlns:xlink="http://www.w3.org/1999/xlink" style="isolation:isolate" viewBox="0 0 100 100" width="100pt" height="100pt"><defs><clipPath id="_clipPath_pwFOIuFFVhyPN6BXLB5yQZUARjwYX17l"><rect width="100" height="100"/></clipPath></defs><g clip-path="url(#_clipPath_pwFOIuFFVhyPN6BXLB5yQZUARjwYX17l)"><g/><circle vector-effect="non-scaling-stroke" cx="50.00000000000001" cy="50.00000000000001" r="42.49999999999999" fill="rgb(255,0,0)" fill-opacity="0.21"/><path d="M 39.751 31.5 L 60.249 31.5 C 68.666 31.5 75.5 38.334 75.5 46.751 L 75.5 53.249 C 75.5 61.666 68.666 68.5 60.249 68.5 L 39.751 68.5 C 31.334 68.5 24.5 61.666 24.5 53.249 L 24.5 46.751 C 24.5 38.334 31.334 31.5 39.751 31.5 Z" style="fill:none;stroke:#000000;stroke-width:6;stroke-linecap:square;stroke-miterlimit:2;"/><mask id="_mask_jgfw6EQTvcIxamIxexRGKYr67gD1c8aJ"><path d=" M 36.5 34.151 C 36.544 25.228 42.576 18 50 18 C 57.451 18 63.5 25.281 63.5 34.25 L 50 34.25 L 36.5 34.151 Z " fill="white" stroke="none"/></mask><path d=" M 36.5 34.151 C 36.544 25.228 42.576 18 50 18 C 57.451 18 63.5 25.281 63.5 34.25 L 50 34.25 L 36.5 34.151 Z " fill="none"/><path d=" M 36.5 34.151 C 36.544 25.228 42.576 18 50 18 C 57.451 18 63.5 25.281 63.5 34.25 L 50 34.25 L 36.5 34.151 Z " fill="none" mask="url(#_mask_jgfw6EQTvcIxamIxexRGKYr67gD1c8aJ)" vector-effect="non-scaling-stroke" stroke-width="6" stroke="rgb(255,0,0)" stroke-linejoin="miter" stroke-linecap="square" stroke-miterlimit="3"/><circle vector-effect="non-scaling-stroke" cx="61" cy="40" r="2" fill="rgb(255,0,0)"/><circle vector-effect="non-scaling-stroke" cx="38.50012206310096" cy="40" r="2" fill="rgb(255,0,0)"/></g></svg>