<?xml version="1.0" encoding="UTF-8" standalone="no"?><!-- Generator: Gravit.io --><svg xmlns="http://www.w3.org/2000/svg" xmlns:xlink="http://www.w3.org/1999/xlink" style="isolation:isolate" viewBox="0 0 100 100" width="100pt" height="100pt"><defs><clipPath id="_clipPath_vguJVgjwqTfhD5NptCPuQLWUhzVFGOcf"><rect width="100" height="100"/></clipPath></defs><g clip-path="url(#_clipPath_vguJVgjwqTfhD5NptCPuQLWUhzVFGOcf)"><g/><g><g><path d=" M 74.112 45.637 C 74.367 47.053 74.5 48.511 74.5 50 C 74.5 63.519 63.522 74.5 50 74.5 C 36.478 74.5 25.5 63.522 25.5 50 C 25.5 36.478 36.478 25.501 50 25.5" fill="none" vector-effect="non-scaling-stroke" stroke-width="2" stroke="rgb(2,166,2)" stroke-linejoin="miter" stroke-linecap="square" stroke-miterlimit="3"/><path d=" M 49.721 48.463 C 46.55 47.639 45.53 46.787 45.53 45.46 C 45.53 43.937 46.941 42.876 49.302 42.876 C 51.788 42.876 52.71 44.063 52.794 45.809 L 55.881 45.809 C 55.783 43.407 54.316 41.199 51.397 40.487 L 51.397 37.428 L 47.206 37.428 L 47.206 40.445 C 44.496 41.032 42.317 42.792 42.317 45.488 C 42.317 48.715 44.985 50.321 48.882 51.257 C 52.375 52.095 53.073 53.325 53.073 54.624 C 53.073 55.588 52.389 57.124 49.302 57.124 C 46.424 57.124 45.292 55.839 45.139 54.191 L 42.066 54.191 C 42.233 57.25 44.524 58.968 47.206 59.541 L 47.206 62.572 L 51.397 62.572 L 51.397 59.569 C 54.121 59.052 56.286 57.473 56.286 54.61 C 56.286 50.643 52.892 49.288 49.721 48.463 Z " fill="rgb(2,166,2)"/><path d=" M 33.237 33.237 L 66.763 33.237 L 66.763 66.763 L 33.237 66.763 L 33.237 33.237 Z " fill="none"/><line x1="58.458" y1="38.898" x2="71.595" y2="25.761" vector-effect="non-scaling-stroke" stroke-width="2.063" stroke="rgb(2,166,2)" stroke-linejoin="miter" stroke-linecap="butt" stroke-miterlimit="10"/><path d=" M 71.595 39.451 L 64.75 39.451 L 57.905 39.451 L 57.905 25.761" fill="none" vector-effect="non-scaling-stroke" stroke-width="2.063" stroke="rgb(2,166,2)" stroke-linejoin="miter" stroke-linecap="butt" stroke-miterlimit="10"/></g></g><circle vector-effect="non-scaling-stroke" cx="50.00000000000001" cy="50.00000000000001" r="42.49999999999999" fill="rgb(2,166,2)" fill-opacity="0.21"/></g></svg>