<?xml version="1.0" encoding="UTF-8" standalone="no"?><!-- Generator: Gravit.io --><svg xmlns="http://www.w3.org/2000/svg" xmlns:xlink="http://www.w3.org/1999/xlink" style="isolation:isolate" viewBox="0 0 100 100" width="100pt" height="100pt"><defs><clipPath id="_clipPath_zIjTc3OD2rLJyljOAyasgTxytG5oRtmr"><rect width="100" height="100"/></clipPath></defs><g clip-path="url(#_clipPath_zIjTc3OD2rLJyljOAyasgTxytG5oRtmr)"><circle vector-effect="non-scaling-stroke" cx="49.99999999999999" cy="50.00000000000001" r="42.49999999999999" fill="rgb(153,0,255)" fill-opacity="0.19"/><path d=" M 39.651 25.694 L 36.5 25.694 C 33.196 25.694 30.5 29.054 30.5 33.173 L 30.5 66.827 C 30.5 70.946 33.196 74.306 36.5 74.306 Q 63.101 74.306 63.5 74.306 C 63.899 74.306 68.483 71.834 68.823 70.566 C 69.162 69.298 69.5 67.323 69.5 66.827 Q 69.5 66.331 69.5 33.173 C 69.5 29.054 66.804 25.694 63.5 25.694 L 39.651 25.694 Z  M 36.5 29.434 L 63.5 29.434 C 65.157 29.434 66.5 31.108 66.5 33.173 L 66.5 66.827 C 66.5 68.689 64.585 70.222 63.5 70.566 L 36.5 70.566 C 34.843 70.566 33.5 68.892 33.5 66.827 L 33.5 33.173 C 33.5 31.108 34.843 29.434 36.5 29.434 Z  M 40.72 40.652 C 39.893 40.745 39.283 41.667 39.359 42.697 C 39.436 43.725 40.174 44.486 41 44.391 L 59 44.391 C 59.54 44.399 60.043 44.047 60.319 43.464 C 60.588 42.88 60.588 42.162 60.319 41.579 C 60.043 40.996 59.539 40.644 59 40.652 L 40.72 40.652 Z  M 40.72 50 C 39.893 50.093 39.283 51.015 39.359 52.045 C 39.436 53.074 40.174 53.835 41 53.739 L 46.64 53.739 L 56 53.739 C 56.54 53.747 57.043 53.395 57.319 52.812 C 57.588 52.229 57.588 51.511 57.319 50.927 C 57.043 50.344 56.539 49.993 56 50 L 40.72 50 Z " fill="rgb(153,0,255)"/></g></svg>